<?xml version="1.0" standalone="no"?>
<!DOCTYPE svg PUBLIC "-//W3C//DTD SVG 20010904//EN"
 "http://www.w3.org/TR/2001/REC-SVG-20010904/DTD/svg10.dtd">
<svg version="1.0" xmlns="http://www.w3.org/2000/svg"
 width="1024.000000pt" height="1024.000000pt" viewBox="0 0 1024.000000 1024.000000"
 preserveAspectRatio="xMidYMid meet">
<metadata>
Created by potrace 1.14, written by Peter Selinger 2001-2017
</metadata>
<g transform="translate(0.000000,1024.000000) scale(0.100000,-0.100000)"
fill="#000000" stroke="none">
<path d="M5023 9124 c-59 -28 -122 -104 -170 -203 -3 -8 -40 -74 -81 -145 -41
-72 -90 -160 -110 -196 -20 -36 -64 -114 -99 -173 -35 -60 -63 -110 -63 -112
0 -2 -14 -28 -31 -57 -17 -29 -71 -123 -119 -208 -48 -85 -144 -254 -212 -375
-69 -121 -139 -245 -155 -275 -17 -30 -151 -266 -297 -525 l-265 -470 860 -3
c473 -1 1245 -1 1715 0 l853 3 -70 125 c-39 69 -83 148 -98 175 -46 81 -281
497 -373 660 -47 83 -99 175 -115 205 -17 30 -54 95 -82 143 -28 49 -51 91
-51 93 0 2 -20 38 -45 78 -25 41 -45 77 -45 80 0 3 -18 35 -40 71 -22 36 -40
67 -40 70 0 2 -22 42 -50 89 -27 47 -50 89 -50 95 0 6 -4 11 -8 11 -5 0 -14
16 -22 35 -8 19 -17 35 -22 35 -4 0 -7 3 -6 8 1 4 -5 18 -14 32 -15 24 -217
380 -232 410 -4 8 -15 29 -24 45 -9 17 -37 65 -61 108 -49 88 -129 177 -160
177 -11 0 -22 4 -25 9 -3 4 -36 9 -73 9 -54 1 -79 -4 -120 -24z"/>
<path d="M3986 8944 c-32 -19 -73 -46 -91 -59 -17 -14 -36 -25 -42 -25 -5 0
-18 -8 -29 -18 -10 -10 -37 -29 -59 -42 -22 -13 -105 -67 -185 -120 -80 -52
-149 -97 -154 -99 -5 -2 -104 -66 -220 -141 -116 -76 -249 -163 -296 -193 -47
-30 -157 -102 -245 -159 -88 -57 -353 -230 -589 -383 -235 -153 -437 -287
-447 -298 -28 -31 -24 -72 9 -95 23 -16 309 -191 394 -241 36 -21 496 -299
711 -430 93 -57 170 -101 172 -99 4 4 71 121 155 273 32 57 95 170 105 187 6
9 27 50 49 90 21 40 43 75 47 76 5 2 9 8 9 13 0 5 31 64 68 132 83 148 111
197 147 262 324 580 294 526 345 616 22 39 40 75 40 80 0 5 5 9 10 9 6 0 10 4
10 10 0 5 41 83 92 172 50 90 105 188 121 218 17 30 40 71 52 90 39 63 45 94
27 131 -21 42 -76 79 -116 79 -18 0 -56 -15 -90 -36z"/>
<path d="M6135 8962 c-40 -25 -65 -64 -65 -99 1 -15 14 -50 30 -78 16 -27 37
-66 48 -85 10 -19 71 -127 134 -240 110 -196 130 -231 193 -345 15 -27 68
-122 118 -210 49 -88 102 -182 117 -210 15 -27 42 -75 59 -105 17 -30 39 -71
49 -90 9 -19 19 -37 22 -40 11 -10 170 -302 170 -311 0 -5 5 -9 10 -9 6 0 10
-4 10 -9 0 -5 18 -41 40 -80 56 -99 76 -135 129 -229 25 -46 51 -91 56 -100 6
-10 30 -53 54 -97 24 -44 45 -81 46 -83 2 -2 58 29 124 70 67 40 129 78 139
83 10 6 74 44 142 86 69 42 287 174 485 294 437 264 415 249 415 284 0 36 -24
60 -123 123 -45 29 -190 124 -322 210 -132 86 -381 248 -553 360 -172 112
-397 258 -500 326 -103 67 -195 125 -204 129 -10 3 -18 9 -18 14 0 5 -4 9 -8
9 -5 0 -79 46 -165 103 -86 56 -205 133 -264 171 -60 38 -141 91 -181 118 -87
58 -141 69 -187 40z"/>
<path d="M1398 6842 c-45 -9 -44 30 -43 -1337 1 -709 4 -1300 8 -1312 9 -23
57 -45 76 -34 6 4 41 55 76 112 36 57 69 111 75 119 36 55 428 685 469 756 19
33 38 61 41 64 4 3 13 16 20 30 7 14 27 48 45 75 42 66 127 202 140 223 17 30
176 284 210 337 57 88 146 237 143 240 -10 8 -241 145 -244 145 -3 0 -17 9
-32 19 -25 18 -490 297 -577 346 -22 13 -100 59 -174 104 -74 45 -138 81 -143
81 -4 0 -8 4 -8 8 0 11 -60 29 -82 24z"/>
<path d="M8833 6839 c-12 -4 -191 -109 -398 -234 -207 -124 -380 -225 -385
-225 -5 0 -10 -4 -12 -8 -1 -4 -34 -26 -73 -48 -102 -59 -118 -68 -129 -77
-27 -19 -180 -107 -188 -107 -4 0 -8 -4 -8 -10 0 -5 -7 -10 -15 -10 -8 0 -15
-2 -15 -4 0 -2 95 -156 211 -342 117 -187 219 -351 228 -366 27 -47 142 -230
186 -298 23 -36 55 -87 70 -115 16 -27 32 -52 35 -55 3 -3 10 -14 17 -25 45
-76 99 -163 151 -245 34 -52 98 -156 143 -230 45 -74 100 -161 121 -192 21
-31 38 -61 38 -67 0 -37 79 -27 98 12 17 35 11 2609 -6 2629 -17 21 -43 27
-69 17z"/>
<path d="M3568 5861 c3 -8 22 -42 42 -76 20 -33 50 -85 67 -115 27 -50 190
-336 648 -1140 92 -162 181 -320 198 -350 16 -30 33 -59 37 -65 4 -5 21 -35
38 -65 16 -30 38 -71 49 -90 11 -19 49 -84 83 -145 34 -60 91 -159 125 -220
35 -60 76 -133 92 -161 15 -28 64 -114 107 -191 l80 -141 33 55 c18 31 33 57
33 58 0 2 24 45 54 97 29 51 64 113 78 138 14 25 69 121 122 214 53 92 96 169
96 171 0 2 17 32 39 66 21 35 54 93 73 129 20 36 165 292 323 570 158 278 297
521 307 540 11 19 108 189 215 377 107 188 193 346 191 350 -2 4 -708 8 -1569
8 -1366 0 -1566 -2 -1561 -14z"/>
<path d="M2930 5604 c-58 -85 -109 -162 -115 -171 -5 -9 -14 -22 -18 -27 -5
-6 -62 -90 -127 -186 -66 -96 -123 -180 -127 -185 -4 -6 -57 -85 -118 -175
-60 -91 -116 -171 -122 -178 -7 -7 -13 -17 -13 -21 0 -4 -9 -18 -20 -31 -11
-12 -34 -46 -52 -74 -18 -28 -36 -55 -41 -61 -4 -5 -30 -44 -59 -85 -193 -284
-368 -544 -402 -595 -22 -33 -43 -62 -46 -65 -3 -3 -21 -30 -40 -60 -19 -30
-37 -57 -40 -60 -3 -3 -33 -45 -66 -95 -32 -49 -61 -92 -64 -95 -3 -3 -9 -13
-15 -22 -5 -9 -27 -42 -49 -73 -43 -63 -49 -111 -22 -163 22 -42 54 -59 127
-66 35 -3 80 -8 99 -10 51 -6 137 -15 200 -21 30 -3 64 -7 75 -9 11 -2 56 -7
100 -11 44 -4 94 -8 110 -10 17 -2 59 -7 95 -10 36 -4 72 -8 80 -10 8 -2 53
-6 100 -10 47 -4 87 -8 90 -10 3 -2 41 -6 85 -10 44 -3 91 -8 105 -10 14 -2
54 -6 90 -9 36 -4 83 -8 105 -11 98 -12 124 -15 180 -20 126 -12 249 -25 285
-30 14 -2 57 -7 95 -10 39 -3 81 -8 95 -10 14 -3 57 -7 95 -10 39 -4 81 -8 95
-10 14 -2 54 -6 90 -10 36 -3 81 -8 100 -10 19 -3 62 -7 95 -10 33 -3 76 -8
95 -10 30 -4 99 -11 290 -31 25 -2 65 -6 90 -9 25 -3 68 -7 95 -10 130 -14
152 -16 178 -21 15 -3 27 -3 27 0 0 3 -29 55 -65 117 -36 61 -65 113 -65 114
0 2 -19 36 -43 77 -24 40 -59 100 -77 133 -18 33 -86 152 -150 265 -64 113
-128 225 -142 250 -14 25 -81 142 -148 260 -68 118 -131 229 -140 245 -9 17
-45 80 -80 140 -34 61 -76 135 -93 165 -16 30 -33 60 -37 65 -4 6 -21 35 -38
65 -45 84 -348 616 -395 695 -23 38 -44 74 -46 80 -9 22 -173 305 -179 309 -4
2 -54 -65 -112 -150z"/>
<path d="M7160 5642 c-36 -63 -80 -143 -99 -176 -18 -34 -57 -101 -86 -151
-29 -49 -65 -112 -80 -140 -16 -27 -150 -264 -298 -525 -270 -476 -287 -505
-325 -570 -26 -45 -261 -461 -294 -520 -14 -25 -39 -69 -57 -98 -17 -29 -31
-55 -31 -58 0 -2 -11 -21 -23 -42 -13 -20 -36 -59 -52 -87 -24 -43 -269 -475
-282 -499 -3 -4 3 -6 13 -3 11 3 57 9 104 12 47 3 92 8 100 10 8 2 47 6 85 10
39 3 106 10 150 15 44 5 107 12 140 15 33 3 76 8 95 10 19 3 62 7 95 10 33 3
76 8 95 10 19 3 62 7 95 10 33 3 76 8 95 10 19 2 60 7 90 10 30 3 71 8 90 10
19 2 64 7 100 10 36 3 99 10 140 15 41 5 104 12 140 15 63 6 78 7 185 19 75 9
122 14 200 22 39 3 78 8 87 9 9 2 52 6 95 10 43 3 85 8 93 10 8 2 53 7 100 10
47 3 92 8 100 10 8 2 44 7 80 10 36 3 81 8 100 10 19 2 82 9 140 15 58 6 121
13 140 15 19 2 64 6 100 10 36 4 76 8 90 10 14 2 54 7 90 10 99 11 126 27 147
90 14 42 0 111 -28 135 -3 3 -115 167 -249 365 -134 198 -270 398 -302 445
-32 47 -62 92 -68 100 -6 8 -32 47 -58 85 -26 39 -104 153 -173 255 -69 102
-155 228 -191 280 -35 52 -102 151 -149 220 -46 69 -87 127 -91 128 -5 2 -8 8
-8 14 0 6 -12 27 -27 47 -16 20 -32 43 -38 52 -5 10 -45 68 -88 130 -43 63
-104 153 -135 201 -31 47 -62 89 -67 91 -6 3 -40 -47 -75 -111z"/>
<path d="M1631 2583 c-26 -21 -32 -74 -10 -95 17 -15 31 -23 169 -84 58 -25
123 -54 145 -64 22 -10 168 -75 325 -145 157 -70 305 -137 330 -148 25 -12 47
-22 50 -22 3 -1 21 -8 40 -17 19 -8 94 -41 165 -73 72 -31 134 -61 140 -66 5
-5 14 -9 21 -9 7 0 50 -18 96 -39 45 -21 121 -56 168 -76 47 -21 103 -46 124
-56 22 -11 46 -19 53 -19 7 0 13 -4 13 -10 0 -5 6 -10 13 -10 8 0 41 -13 75
-30 34 -16 64 -30 67 -30 2 0 43 -18 90 -40 47 -22 88 -40 91 -40 2 0 32 -13
66 -29 35 -16 124 -56 198 -89 74 -33 155 -69 180 -80 235 -108 505 -222 527
-222 36 0 90 38 104 73 9 21 12 173 13 543 1 283 -2 522 -5 531 -6 18 -12 19
-119 28 -41 4 -82 8 -90 10 -8 2 -44 6 -80 10 -36 3 -81 8 -100 10 -19 2 -57
7 -85 10 -72 7 -144 15 -190 20 -45 5 -112 13 -182 20 -27 3 -70 7 -98 10 -27
3 -72 8 -100 10 -27 3 -68 7 -90 10 -64 8 -116 13 -180 20 -33 3 -73 8 -90 10
-16 2 -55 6 -85 9 -73 8 -246 26 -290 32 -37 4 -86 9 -190 19 -36 3 -76 8 -90
10 -14 2 -52 7 -85 10 -33 3 -73 8 -90 10 -16 2 -61 6 -100 10 -38 4 -81 8
-95 10 -14 2 -52 7 -85 10 -62 6 -137 14 -190 20 -16 2 -57 7 -90 10 -33 3
-71 8 -85 10 -14 2 -56 6 -95 10 -38 4 -83 8 -100 10 -142 16 -151 16 -174 -2z"/>
<path d="M8490 2588 c-30 -4 -84 -10 -120 -14 -36 -3 -78 -8 -95 -10 -16 -2
-64 -6 -105 -10 -41 -3 -78 -8 -81 -10 -3 -2 -41 -6 -85 -9 -43 -3 -90 -8
-104 -10 -14 -3 -52 -7 -85 -10 -33 -3 -76 -8 -95 -11 -42 -5 -93 -11 -180
-19 -36 -3 -81 -8 -100 -10 -83 -11 -119 -14 -185 -20 -38 -3 -81 -8 -95 -10
-14 -3 -50 -7 -80 -10 -30 -3 -77 -8 -105 -11 -55 -7 -65 -8 -175 -18 -41 -4
-86 -9 -100 -11 -39 -6 -109 -14 -178 -20 -35 -4 -71 -8 -81 -10 -10 -2 -55
-6 -102 -10 -46 -4 -91 -8 -99 -10 -8 -2 -49 -6 -90 -10 -41 -3 -86 -8 -100
-10 -22 -4 -46 -6 -170 -20 -19 -2 -64 -6 -100 -10 -36 -3 -81 -8 -101 -11
-20 -2 -56 -6 -80 -9 -147 -14 -199 -21 -206 -29 -2 -2 -4 -213 -4 -467 -1
-688 -6 -605 40 -650 43 -43 79 -50 134 -25 18 8 93 42 167 74 153 68 227 101
318 143 34 16 64 29 66 29 3 0 33 13 68 29 35 16 167 75 293 131 127 56 248
110 270 120 22 10 108 48 190 85 83 37 168 75 190 85 22 10 187 84 366 164
180 79 346 154 370 165 24 11 205 92 402 179 196 87 368 168 382 180 31 27 32
51 4 86 -23 29 -36 30 -159 14z"/>
</g>
</svg>
